<?xml version="1.0" encoding="UTF-8" standalone="no"?>
<svg
   width="301.6"
   height="61.7"
   viewBox="0 0 301.6 61.7"
   version="1.1"
   id="svg1"
   sodipodi:docname="signature.svg"
   inkscape:version="1.4 (e7c3feb1, 2024-10-09)"
   xmlns:inkscape="http://www.inkscape.org/namespaces/inkscape"
   xmlns:sodipodi="http://sodipodi.sourceforge.net/DTD/sodipodi-0.dtd"
   xmlns="http://www.w3.org/2000/svg"
   xmlns:svg="http://www.w3.org/2000/svg">
  <defs
     id="defs1">
    <linearGradient
       id="linearGradient1"
       inkscape:swatch="gradient">
      <stop
         style="stop-color:#ff0000;stop-opacity:1;"
         offset="0"
         id="stop1" />
      <stop
         style="stop-color:#000000;stop-opacity:0;"
         offset="1"
         id="stop2" />
    </linearGradient>
  </defs>
  <sodipodi:namedview
     id="namedview1"
     pagecolor="#ffffff"
     bordercolor="#000000"
     borderopacity="0.25"
     inkscape:showpageshadow="2"
     inkscape:pageopacity="0.0"
     inkscape:pagecheckerboard="0"
     inkscape:deskcolor="#d1d1d1"
     inkscape:zoom="3.4781166"
     inkscape:cx="150.65625"
     inkscape:cy="30.907532"
     inkscape:current-layer="svg1" />
  <g
     id="svgGroup"
     stroke-linecap="round"
     fill-rule="evenodd"
     font-size="12px"
     stroke="#000"
     stroke-width="0.25mm"
     fill="#000"
     style="fill:#000000;stroke:#000000;stroke-width:0.54080082;fill-opacity:1;stroke-opacity:1;stroke-dasharray:none"
     transform="matrix(0.55743014,0,0,0.55204868,77.340707,12.075499)">
    <path
       d="M 14.711,61.251 A 5.002,5.002 0 0 0 16.6,61.6 9.014,9.014 0 0 0 20.772,60.545 13.058,13.058 0 0 0 23.2,58.9 q 1.181,-0.919 2.599,-2.376 A 49.368,49.368 0 0 0 27.35,54.85 82.131,82.131 0 0 0 27.643,54.517 89.402,89.402 0 0 0 30.276,51.367 19.607,19.607 0 0 0 30.2,53.1 9.39,9.39 0 0 0 30.417,55.175 6.228,6.228 0 0 0 32.2,58.4 6.684,6.684 0 0 0 35.337,60.055 9.855,9.855 0 0 0 37.6,60.3 13.817,13.817 0 0 0 39.58,60.163 10.197,10.197 0 0 0 44.9,57.8 27.443,27.443 0 0 0 45.029,57.688 Q 47.886,55.194 51.7,50.5 a 102.872,102.872 0 0 0 0.2,-0.261 16.167,16.167 0 0 0 0,0.061 q 0,4.1 2.6,7.5 a 8.282,8.282 0 0 0 4.667,3.034 12.589,12.589 0 0 0 3.133,0.366 q 5.1,0 9.15,-2.75 A 29.506,29.506 0 0 0 73.455,56.96 32.909,32.909 0 0 0 78.75,51.5 106.023,106.023 0 0 0 79.834,50.077 15.091,15.091 0 0 0 79.8,51 a 15.265,15.265 0 0 0 0.078,1.562 12.062,12.062 0 0 0 1.972,5.588 q 2.05,3.05 7.25,3.05 a 19.541,19.541 0 0 0 0.159,-0.001 16.311,16.311 0 0 0 8.991,-2.649 28.798,28.798 0 0 0 2.458,-1.803 32.717,32.717 0 0 0 4.892,-4.997 75.203,75.203 0 0 0 2.476,-3.296 78.124,78.124 0 0 0 0.781,-1.037 56.099,56.099 0 0 0 1.393,-1.967 q 1.45,-2.15 2.85,-4.4 1.4,-2.25 3.4,-4.95 a 69.48,69.48 0 0 0 0.061,-0.081 q 0.584,-0.781 1.439,-1.969 0.9,-1.25 2.05,-2.25 a 5.72,5.72 0 0 1 0.117,-0.099 q 0.41,-0.337 0.826,-0.548 a 3.081,3.081 0 0 1 1.407,-0.353 2.187,2.187 0 0 1 0.094,0.002 q 0.721,0.031 0.956,0.548 0.25,0.55 0.25,1.15 0,1.406 -0.618,3.455 a 28.311,28.311 0 0 1 -0.632,1.845 90.161,90.161 0 0 1 -1.189,2.974 114.575,114.575 0 0 1 -1.811,4.076 q -1.75,3.75 -3.5,7.25 -1.75,3.5 -2.85,5.9 a 2.74,2.74 0 0 0 -0.234,0.694 3.613,3.613 0 0 0 -0.066,0.706 q 0,0.5 0.6,0.8 0.319,0.159 0.609,0.234 A 1.97,1.97 0 0 0 114.5,60.5 1.712,1.712 0 0 0 115.53,60.172 2.219,2.219 0 0 0 116,59.7 q 0.5,-0.8 0.9,-1.65 0.4,-0.85 0.9,-1.65 l 4,-6.3 a 33.122,33.122 0 0 1 0.668,-0.992 q 1.051,-1.503 2.394,-3.09 a 61.27,61.27 0 0 1 2.888,-3.168 q 3.75,-3.85 8.2,-7.15 a 56.418,56.418 0 0 1 0.278,-0.205 q 4.3,-3.148 8.272,-4.795 0.475,-0.178 0.88,-0.25 a 2.963,2.963 0 0 1 0.52,-0.05 2.77,2.77 0 0 1 0.374,0.023 q 0.826,0.113 0.826,0.777 a 0.862,0.862 0 0 1 -0.004,0.078 q -0.015,0.17 -0.096,0.372 a 2.11,2.11 0 0 1 -0.036,0.085 q -0.05,0.11 -0.118,0.23 a 3.964,3.964 0 0 1 -0.146,0.235 16.752,16.752 0 0 1 -0.135,0.199 q -0.835,1.215 -2.815,3.701 -2.15,2.7 -4.6,6.05 a 58.752,58.752 0 0 0 -1.181,1.675 50.932,50.932 0 0 0 -3.019,5.025 20.698,20.698 0 0 0 -0.718,1.514 q -0.486,1.149 -0.743,2.2 a 9.417,9.417 0 0 0 -0.289,2.236 4.845,4.845 0 0 0 0.306,1.7 5.767,5.767 0 0 0 0.844,1.5 3.391,3.391 0 0 0 0.973,0.861 q 0.602,0.356 1.395,0.514 A 7.097,7.097 0 0 0 138.1,59.5 13.127,13.127 0 0 0 138.913,59.475 14.875,14.875 0 0 0 141.4,59.1 q 1.7,-0.4 3.3,-1.3 a 21.728,21.728 0 0 0 0.9,-0.559 24.905,24.905 0 0 0 2.45,-1.841 32.756,32.756 0 0 0 0.217,-0.185 q 0.75,-0.648 1.381,-1.274 a 19.466,19.466 0 0 0 1.152,-1.241 31.85,31.85 0 0 0 0.083,-0.1 q 0.508,-0.615 1.567,-1.95 a 71.328,71.328 0 0 0 0.379,-0.482 15.091,15.091 0 0 0 -0.029,0.832 15.265,15.265 0 0 0 0.078,1.562 12.062,12.062 0 0 0 1.972,5.588 q 2.05,3.05 7.25,3.05 a 19.541,19.541 0 0 0 0.159,-0.001 16.311,16.311 0 0 0 8.991,-2.649 28.798,28.798 0 0 0 2.458,-1.803 32.717,32.717 0 0 0 4.892,-4.997 75.203,75.203 0 0 0 1.121,-1.445 15.091,15.091 0 0 0 -0.021,0.695 15.265,15.265 0 0 0 0.078,1.562 12.062,12.062 0 0 0 1.972,5.588 q 2.05,3.05 7.25,3.05 a 19.541,19.541 0 0 0 0.159,-0.001 16.311,16.311 0 0 0 8.991,-2.649 28.798,28.798 0 0 0 2.458,-1.803 32.717,32.717 0 0 0 4.388,-4.373 16.244,16.244 0 0 0 -0.196,2.426 q 0,2.5 1.3,4.7 a 4.123,4.123 0 0 0 1.06,1.2 q 1.315,1 3.54,1 a 8.811,8.811 0 0 0 0.819,-0.037 7.09,7.09 0 0 0 1.381,-0.263 q 1.222,-0.287 2.728,-1.402 A 17.652,17.652 0 0 0 216.85,59 q 2.25,-2 4.55,-4.65 2.3,-2.65 4.2,-4.95 -0.275,1.238 -0.432,2.121 a 21.984,21.984 0 0 0 -0.118,0.729 q -0.15,1.05 -0.15,1.95 0,1.9 0.75,3.7 0.469,1.125 1.426,1.703 a 4.091,4.091 0 0 0 1.324,0.497 1.865,1.865 0 0 0 0.212,0.057 2.157,2.157 0 0 0 0.438,0.043 h 0.65 a 7.373,7.373 0 0 0 2.315,-0.374 q 1.418,-0.466 2.776,-1.511 a 14.81,14.81 0 0 0 2.109,-2.015 46.313,46.313 0 0 0 0.5,-0.584 q 1.101,-1.305 2.339,-2.956 a 111.776,111.776 0 0 0 1.781,-2.451 15.091,15.091 0 0 0 -0.02,0.691 15.265,15.265 0 0 0 0.078,1.562 12.062,12.062 0 0 0 1.972,5.588 q 2.05,3.05 7.25,3.05 a 19.541,19.541 0 0 0 0.159,-0.001 16.311,16.311 0 0 0 8.991,-2.649 28.798,28.798 0 0 0 2.458,-1.803 32.717,32.717 0 0 0 4.892,-4.997 75.203,75.203 0 0 0 2.154,-2.845 83.091,83.091 0 0 0 2.221,-3.092 61.216,61.216 0 0 0 2.725,-4.363 233.763,233.763 0 0 1 0.178,-0.314 q 1.681,-2.966 2.803,-4.739 a 37.256,37.256 0 0 1 0.719,-1.097 4.97,4.97 0 0 0 0.66,0.835 q 0.544,0.558 1.308,1.025 a 10.273,10.273 0 0 0 1.482,0.74 q 2.227,0.909 3.917,0.909 a 5.997,5.997 0 0 0 0.333,-0.009 22.867,22.867 0 0 0 -0.068,0.092 q -0.899,1.211 -2.632,3.858 -1.8,2.75 -3.4,5.95 a 12.254,12.254 0 0 0 -0.031,0.058 q -0.687,1.292 -1.469,3.492 a 15,15 0 0 0 -0.422,1.392 12.19,12.19 0 0 0 -0.378,2.958 8.608,8.608 0 0 0 0.048,0.926 q 0.205,1.899 1.302,2.874 a 4.669,4.669 0 0 0 1.361,0.851 A 5.002,5.002 0 0 0 282,61.6 9.014,9.014 0 0 0 286.172,60.545 13.058,13.058 0 0 0 288.6,58.9 q 1.181,-0.919 2.599,-2.376 a 49.368,49.368 0 0 0 1.551,-1.674 82.131,82.131 0 0 0 0.293,-0.333 89.402,89.402 0 0 0 4.307,-5.317 70.289,70.289 0 0 0 0.616,-0.834 q 0.899,-1.236 1.646,-2.383 A 39.932,39.932 0 0 0 301,43.7 q 0.427,-0.782 0.55,-1.311 A 1.729,1.729 0 0 0 301.6,42 q 0,-1.2 -1.3,-1.2 a 2.264,2.264 0 0 0 -0.49,0.05 1.327,1.327 0 0 0 -0.91,0.65 350.954,350.954 0 0 1 -1.504,2.268 q -0.723,1.08 -1.387,2.052 A 187.775,187.775 0 0 1 294.5,48 a 72.331,72.331 0 0 1 -1.535,2.103 57.64,57.64 0 0 1 -2.215,2.747 45.438,45.438 0 0 1 -1.529,1.687 55.912,55.912 0 0 1 -2.721,2.663 17.395,17.395 0 0 1 -0.125,0.099 15.869,15.869 0 0 1 -1.925,1.301 6.203,6.203 0 0 1 -0.542,0.277 Q 283.187,59.2 282.6,59.2 a 2.567,2.567 0 0 1 -0.103,-0.002 q -1.436,-0.057 -1.724,-1.746 A 5.682,5.682 0 0 1 280.7,56.5 7.715,7.715 0 0 1 280.912,54.744 10.474,10.474 0 0 1 281.45,53.1 q 0.75,-1.8 1.15,-2.8 a 48.855,48.855 0 0 1 0.924,-1.697 57.329,57.329 0 0 1 2.376,-3.803 q 1.9,-2.8 3.8,-5.2 1.9,-2.4 3.3,-3.7 0.6,-0.5 0.6,-1.2 0,-0.5 -0.45,-0.95 a 1.878,1.878 0 0 0 -0.029,-0.028 1.431,1.431 0 0 0 -1.021,-0.422 1.139,1.139 0 0 0 -0.159,0.012 q -0.73,0.103 -2.341,1.088 a 6.438,6.438 0 0 1 -0.423,0.237 Q 287.492,35.5 285.1,35.5 a 4.846,4.846 0 0 1 -0.393,-0.018 Q 284.031,35.426 282.9,35.2 a 5.101,5.101 0 0 1 -0.086,-0.018 q -0.632,-0.138 -0.981,-0.388 A 0.94,0.94 0 0 1 281.4,34 a 3.901,3.901 0 0 1 0.052,-0.62 q 0.073,-0.454 0.25,-0.953 A 8.212,8.212 0 0 1 282.1,31.5 q 0.7,-1.4 1.35,-2.75 a 11.171,11.171 0 0 0 0.054,-0.113 Q 284.1,27.362 284.1,26.5 a 1.534,1.534 0 0 0 -0.047,-0.378 q -0.086,-0.34 -0.331,-0.651 A 2.713,2.713 0 0 0 283.3,25.05 4.045,4.045 0 0 0 283.191,24.964 Q 282.895,24.741 282.6,24.606 A 2.149,2.149 0 0 0 281.7,24.4 q -0.9,0 -1.6,0.55 A 4.967,4.967 0 0 0 279.808,25.198 4.167,4.167 0 0 0 279,26.2 q -0.4,0.9 -0.85,1.9 -0.45,1 -0.85,1.9 a 47.32,47.32 0 0 1 -0.54,1.161 q -0.63,1.31 -1.417,2.757 a 88.109,88.109 0 0 1 -1.493,2.632 q -2.15,3.65 -4.4,7 a 413.507,413.507 0 0 1 -0.466,0.693 324.29,324.29 0 0 1 -1.218,1.793 88.959,88.959 0 0 1 -0.366,0.514 Q 266,48.5 264.7,50 a 46.432,46.432 0 0 1 -0.642,0.725 q -0.563,0.623 -1.217,1.306 A 87.683,87.683 0 0 1 261.5,53.4 17.382,17.382 0 0 1 259.521,55.093 22.385,22.385 0 0 1 256.8,56.8 14.135,14.135 0 0 1 256.625,56.892 12.086,12.086 0 0 1 251,58.3 10.286,10.286 0 0 1 250.048,58.258 Q 247.227,57.996 246.15,56.1 a 9.55,9.55 0 0 1 -1.25,-4.8 18.764,18.764 0 0 1 0.002,-0.252 q 0.01,-0.762 0.083,-1.441 A 11.054,11.054 0 0 1 245.2,48.3 q 0.6,0.1 1.2,0.15 0.6,0.05 1.2,0.05 4.9,0 9.2,-2.5 4.3,-2.5 7,-6.4 A 17.263,17.263 0 0 0 264.869,37.848 13.417,13.417 0 0 0 266.5,31.5 6.099,6.099 0 0 0 266.497,31.295 4.756,4.756 0 0 0 264.95,27.85 5.194,5.194 0 0 0 262.568,26.596 7.554,7.554 0 0 0 260.8,26.4 11.547,11.547 0 0 0 256.984,27.042 13.374,13.374 0 0 0 253.3,29.05 q -3.5,2.65 -6.15,6.65 a 42.931,42.931 0 0 0 -0.953,1.505 37.472,37.472 0 0 0 -2.344,4.513 1.843,1.843 0 0 0 -0.053,0.082 49.265,49.265 0 0 1 -0.469,0.714 q -0.841,1.26 -2.181,3.136 l -3.25,4.55 a 355.183,355.183 0 0 1 -0.188,0.263 q -1.07,1.495 -1.523,2.093 A 12.191,12.191 0 0 1 236,52.8 q -0.4,0.6 -1.4,1.7 -1,1.1 -2.2,2 a 6.182,6.182 0 0 1 -0.378,0.263 q -0.414,0.264 -0.815,0.419 A 3.066,3.066 0 0 1 230.1,57.4 2.125,2.125 0 0 1 229.98,57.397 q -0.569,-0.032 -0.967,-0.375 A 1.897,1.897 0 0 1 228.6,56.5 q -0.297,-0.534 -0.417,-1.21 a 5.634,5.634 0 0 1 -0.083,-0.99 9.781,9.781 0 0 1 0.001,-0.11 q 0.018,-1.615 0.566,-3.804 A 33.477,33.477 0 0 1 229.3,48.2 61.931,61.931 0 0 1 230.023,46.103 71.84,71.84 0 0 1 232.3,40.6 q 1.8,-3.9 3.5,-7.15 1.7,-3.25 2.7,-4.85 a 111.397,111.397 0 0 1 0.063,-0.102 q 1.287,-2.073 3.287,-5.098 2.05,-3.1 4.35,-6.5 2.3,-3.4 4.3,-6.5 1.25,-1.937 2.207,-3.543 A 68.8,68.8 0 0 0 253.75,5.05 Q 255,2.8 255,2.1 A 5.683,5.683 0 0 0 254.987,1.699 Q 254.946,1.127 254.782,0.776 A 1.028,1.028 0 0 0 254.5,0.4 Q 254,0 253.2,0 a 3.373,3.373 0 0 0 -0.149,0.003 q -0.523,0.024 -1.074,0.209 A 5.494,5.494 0 0 0 251.1,0.6 Q 250,1.2 249,2.9 247.625,5.15 246.055,7.927 A 264.772,264.772 0 0 0 244.1,11.45 q -2.7,4.95 -5.3,9.8 a 217.1,217.1 0 0 1 -1.576,2.89 q -0.764,1.374 -1.479,2.606 A 116.242,116.242 0 0 1 234.1,29.5 12.068,12.068 0 0 0 233.14,28.498 9.389,9.389 0 0 0 231.55,27.3 q -0.886,-0.525 -2.138,-0.705 A 9.914,9.914 0 0 0 228,26.5 12.942,12.942 0 0 0 224.879,26.883 15.028,15.028 0 0 0 220.95,28.5 q -3.45,2 -6.35,5.2 -2.9,3.2 -5.1,7 a 47.066,47.066 0 0 0 -0.359,0.631 1.451,1.451 0 0 0 -0.035,0.058 1.868,1.868 0 0 0 -0.006,0.011 q -1.575,2.4 -2.756,4.097 A 88.959,88.959 0 0 1 205.6,46.55 q -1.4,1.95 -2.7,3.45 a 46.432,46.432 0 0 1 -0.642,0.725 q -0.563,0.623 -1.217,1.306 A 87.683,87.683 0 0 1 199.7,53.4 17.382,17.382 0 0 1 197.721,55.093 22.385,22.385 0 0 1 195,56.8 14.135,14.135 0 0 1 194.825,56.892 12.086,12.086 0 0 1 189.2,58.3 10.286,10.286 0 0 1 188.248,58.258 Q 185.427,57.996 184.35,56.1 a 9.55,9.55 0 0 1 -1.25,-4.8 18.764,18.764 0 0 1 0.002,-0.252 q 0.01,-0.762 0.083,-1.441 A 11.054,11.054 0 0 1 183.4,48.3 q 0.6,0.1 1.2,0.15 0.6,0.05 1.2,0.05 4.9,0 9.2,-2.5 4.3,-2.5 7,-6.4 A 17.263,17.263 0 0 0 203.069,37.848 13.417,13.417 0 0 0 204.7,31.5 6.099,6.099 0 0 0 204.697,31.295 4.756,4.756 0 0 0 203.15,27.85 5.194,5.194 0 0 0 200.768,26.596 7.554,7.554 0 0 0 199,26.4 11.547,11.547 0 0 0 195.184,27.042 13.374,13.374 0 0 0 191.5,29.05 q -3.5,2.65 -6.15,6.65 a 42.931,42.931 0 0 0 -0.953,1.505 37.472,37.472 0 0 0 -2.218,4.228 274.464,274.464 0 0 1 -0.414,0.628 q -1.306,1.978 -2.321,3.436 A 88.959,88.959 0 0 1 178.7,46.55 Q 177.3,48.5 176,50 a 46.432,46.432 0 0 1 -0.642,0.725 q -0.563,0.623 -1.217,1.306 A 87.683,87.683 0 0 1 172.8,53.4 17.382,17.382 0 0 1 170.821,55.093 22.385,22.385 0 0 1 168.1,56.8 14.135,14.135 0 0 1 167.925,56.892 12.086,12.086 0 0 1 162.3,58.3 10.286,10.286 0 0 1 161.348,58.258 Q 158.527,57.996 157.45,56.1 a 9.55,9.55 0 0 1 -1.25,-4.8 18.764,18.764 0 0 1 0.002,-0.252 q 0.01,-0.762 0.083,-1.441 A 11.054,11.054 0 0 1 156.5,48.3 q 0.6,0.1 1.2,0.15 0.6,0.05 1.2,0.05 4.9,0 9.2,-2.5 4.3,-2.5 7,-6.4 A 17.263,17.263 0 0 0 176.169,37.848 13.417,13.417 0 0 0 177.8,31.5 6.099,6.099 0 0 0 177.797,31.295 4.756,4.756 0 0 0 176.25,27.85 5.194,5.194 0 0 0 173.868,26.596 7.554,7.554 0 0 0 172.1,26.4 11.547,11.547 0 0 0 168.284,27.042 13.374,13.374 0 0 0 164.6,29.05 q -3.5,2.65 -6.15,6.65 a 42.931,42.931 0 0 0 -0.953,1.505 37.472,37.472 0 0 0 -2.405,4.654 432.23,432.23 0 0 0 -0.04,0.058 q -1.399,2.055 -2.302,3.433 a 40.968,40.968 0 0 1 -0.712,1.052 34.005,34.005 0 0 1 -1.188,1.598 38.892,38.892 0 0 1 -0.023,0.029 Q 149.882,49.22 148.4,50.9 a 9.138,9.138 0 0 1 -0.492,0.577 q -0.314,0.341 -0.707,0.712 A 22.332,22.332 0 0 1 146.35,52.95 27.876,27.876 0 0 1 146.012,53.234 25.257,25.257 0 0 1 143.6,55 17.316,17.316 0 0 1 143.14,55.297 Q 141.044,56.6 139.6,56.6 a 3.71,3.71 0 0 1 -0.694,-0.061 Q 137.1,56.195 137.1,53.9 a 5.325,5.325 0 0 1 0.002,-0.144 q 0.012,-0.448 0.098,-1.006 a 4.955,4.955 0 0 1 0.126,-0.578 6.176,6.176 0 0 1 0.274,-0.772 q 0.578,-1.677 1.591,-3.487 A 32.572,32.572 0 0 1 140.9,45.2 q 2.3,-3.3 4.85,-6.55 a 205.07,205.07 0 0 0 0.702,-0.9 q 2.101,-2.709 3.648,-4.9 a 19.52,19.52 0 0 0 0.693,-1.047 q 0.71,-1.158 0.965,-2.024 A 3.146,3.146 0 0 0 151.9,28.9 5.695,5.695 0 0 0 151.898,28.738 Q 151.862,27.47 151.25,27 A 2.332,2.332 0 0 0 150.341,26.579 3.283,3.283 0 0 0 149.6,26.5 q -0.8,0 -1.75,0.2 -0.95,0.2 -1.85,0.5 -1.9,0.5 -5.6,2.65 a 58.66,58.66 0 0 0 -0.239,0.14 q -1.797,1.055 -3.723,2.356 A 95.953,95.953 0 0 0 132.45,35.2 q -4.25,3.2 -7.95,7.1 2.063,-3.919 2.707,-6.845 A 11.472,11.472 0 0 0 127.5,33 7.271,7.271 0 0 0 127.483,32.493 5.823,5.823 0 0 0 126.45,29.5 3.081,3.081 0 0 0 125.281,28.507 Q 124.269,28 122.7,28 q -3.2,0 -5.05,2 -1.85,2 -3.55,4.2 a 31.19,31.19 0 0 0 -0.247,0.335 q -0.457,0.627 -1.258,1.769 a 347.114,347.114 0 0 0 -0.695,0.996 245.692,245.692 0 0 0 -1.049,1.521 q -0.549,0.801 -1.146,1.686 a 444.506,444.506 0 0 0 -1.505,2.243 267.36,267.36 0 0 0 -1.056,1.597 305.399,305.399 0 0 0 -1.321,2.031 88.959,88.959 0 0 1 -0.123,0.172 Q 104.3,48.5 103,50 a 46.432,46.432 0 0 1 -0.642,0.725 q -0.563,0.623 -1.217,1.306 A 87.683,87.683 0 0 1 99.8,53.4 17.382,17.382 0 0 1 97.821,55.093 22.385,22.385 0 0 1 95.1,56.8 14.135,14.135 0 0 1 94.925,56.892 12.086,12.086 0 0 1 89.3,58.3 10.286,10.286 0 0 1 88.348,58.258 Q 85.527,57.996 84.45,56.1 a 9.55,9.55 0 0 1 -1.25,-4.8 18.764,18.764 0 0 1 0.002,-0.252 q 0.01,-0.762 0.083,-1.441 A 11.054,11.054 0 0 1 83.5,48.3 q 0.6,0.1 1.2,0.15 0.6,0.05 1.2,0.05 4.9,0 9.2,-2.5 4.3,-2.5 7,-6.4 A 17.263,17.263 0 0 0 103.169,37.848 13.417,13.417 0 0 0 104.8,31.5 6.099,6.099 0 0 0 104.797,31.295 4.756,4.756 0 0 0 103.25,27.85 5.194,5.194 0 0 0 100.868,26.596 7.554,7.554 0 0 0 99.1,26.4 11.547,11.547 0 0 0 95.284,27.042 13.374,13.374 0 0 0 91.6,29.05 q -3.5,2.65 -6.15,6.65 a 42.931,42.931 0 0 0 -0.953,1.505 37.472,37.472 0 0 0 -2.218,4.228 468.837,468.837 0 0 1 -0.414,0.628 Q 80.058,44.806 78.85,46.55 77.5,48.5 76.25,50 75.469,50.938 74.395,52.031 A 56.547,56.547 0 0 1 73,53.4 17.382,17.382 0 0 1 71.021,55.093 22.385,22.385 0 0 1 68.3,56.8 14.135,14.135 0 0 1 68.125,56.892 12.086,12.086 0 0 1 62.5,58.3 10.246,10.246 0 0 1 61.787,58.276 Q 60.904,58.214 60.166,57.995 A 4.966,4.966 0 0 1 58.3,57 6.813,6.813 0 0 1 57.596,56.295 7.013,7.013 0 0 1 56.2,53.7 q -0.6,-2 -0.6,-4 0,-2 0.55,-3.95 Q 56.7,43.8 57.7,42 58.277,40.911 59.181,39.555 A 51.994,51.994 0 0 1 60.3,37.95 43.562,43.562 0 0 1 61.411,36.481 50.918,50.918 0 0 1 64.2,33.25 25.268,25.268 0 0 1 64.826,32.605 22.194,22.194 0 0 1 68.95,29.35 11.785,11.785 0 0 1 70.856,28.406 8.748,8.748 0 0 1 74,27.8 a 4.334,4.334 0 0 1 0.43,0.02 q 0.389,0.039 0.701,0.152 A 1.727,1.727 0 0 1 76.05,28.7 q 0.55,0.9 0.55,2 0,1.8 -0.8,3.4 -0.45,0.9 -0.9,1.642 a 15.236,15.236 0 0 1 -0.7,1.058 20.464,20.464 0 0 0 -0.021,0.029 q -0.612,0.845 -0.743,1.209 A 0.503,0.503 0 0 0 73.4,38.2 q 0,0.5 0.5,0.95 A 2.073,2.073 0 0 0 74.076,39.292 1.551,1.551 0 0 0 75,39.6 q 0.773,0 1.448,-0.568 A 3.897,3.897 0 0 0 77,38.45 9.979,9.979 0 0 0 77.789,37.273 12.856,12.856 0 0 0 78.55,35.7 29.233,29.233 0 0 0 78.932,34.71 24.895,24.895 0 0 0 79.6,32.6 21.729,21.729 0 0 0 79.766,31.939 Q 80,30.935 80,30.4 80,28.2 78.65,26.5 A 4.106,4.106 0 0 0 77.894,25.764 Q 77.142,25.2 76.108,24.966 A 7.287,7.287 0 0 0 74.5,24.8 q -3.3,0 -6.3,1.6 A 23.612,23.612 0 0 0 67.641,26.708 25.336,25.336 0 0 0 62.6,30.5 45.763,45.763 0 0 0 61.959,31.128 40.917,40.917 0 0 0 58,35.7 q -2,2.7 -3.2,4.9 A 23.372,23.372 0 0 0 53.971,42.13 51.982,51.982 0 0 0 53.365,43.036 72.875,72.875 0 0 0 52.65,44.15 28.984,28.984 0 0 1 52.094,44.999 34.183,34.183 0 0 1 50.7,46.9 96.836,96.836 0 0 1 48.863,49.259 Q 46.226,52.536 43.95,54.7 a 15.219,15.219 0 0 1 -0.999,0.874 Q 40.408,57.6 37.9,57.6 A 6.826,6.826 0 0 1 36.745,57.508 Q 34.327,57.093 33.711,54.792 A 6.945,6.945 0 0 1 33.5,53 q 0,-3.6 1.7,-7.5 1.7,-3.9 4.2,-7.5 a 92.613,92.613 0 0 1 0.331,-0.474 q 2.322,-3.299 4.469,-5.726 0.4,-0.6 0.4,-1 A 0.949,0.949 0 0 0 44.449,30.272 Q 44.241,29.952 43.75,29.75 43.166,29.509 42.747,29.434 A 1.977,1.977 0 0 0 42.4,29.4 q -0.937,0 -2.119,1.221 A 11.015,11.015 0 0 0 39.6,31.4 30.741,30.741 0 0 0 39.148,31.979 Q 37.761,33.801 36.3,36.25 a 85.787,85.787 0 0 0 -1.401,2.436 67.964,67.964 0 0 0 -1.549,2.964 120.156,120.156 0 0 0 -0.147,0.301 350.954,350.954 0 0 1 -1.207,1.817 q -0.723,1.08 -1.387,2.052 A 187.775,187.775 0 0 1 29.1,48 72.331,72.331 0 0 1 27.565,50.103 57.64,57.64 0 0 1 25.35,52.85 45.438,45.438 0 0 1 23.821,54.537 55.912,55.912 0 0 1 21.1,57.2 17.395,17.395 0 0 1 20.975,57.299 15.869,15.869 0 0 1 19.05,58.6 6.203,6.203 0 0 1 18.508,58.877 Q 17.787,59.2 17.2,59.2 A 2.567,2.567 0 0 1 17.097,59.198 Q 15.661,59.141 15.373,57.452 A 5.682,5.682 0 0 1 15.3,56.5 7.715,7.715 0 0 1 15.512,54.744 10.474,10.474 0 0 1 16.05,53.1 Q 16.8,51.3 17.2,50.3 A 48.855,48.855 0 0 1 18.124,48.603 57.329,57.329 0 0 1 20.5,44.8 q 1.9,-2.8 3.8,-5.2 1.9,-2.4 3.3,-3.7 0.6,-0.5 0.6,-1.2 0,-0.5 -0.45,-0.95 A 1.878,1.878 0 0 0 27.721,33.722 1.431,1.431 0 0 0 26.7,33.3 1.139,1.139 0 0 0 26.541,33.312 Q 25.811,33.415 24.2,34.4 a 6.438,6.438 0 0 1 -0.423,0.237 Q 22.092,35.5 19.7,35.5 A 4.846,4.846 0 0 1 19.307,35.482 Q 18.631,35.426 17.5,35.2 A 5.101,5.101 0 0 1 17.414,35.182 Q 16.782,35.044 16.433,34.794 A 0.94,0.94 0 0 1 16,34 3.901,3.901 0 0 1 16.052,33.38 q 0.073,-0.454 0.25,-0.953 A 8.212,8.212 0 0 1 16.7,31.5 q 0.7,-1.4 1.35,-2.75 a 11.171,11.171 0 0 0 0.054,-0.113 Q 18.7,27.362 18.7,26.5 a 1.534,1.534 0 0 0 -0.047,-0.378 q -0.086,-0.34 -0.331,-0.651 A 2.713,2.713 0 0 0 17.9,25.05 4.045,4.045 0 0 0 17.791,24.964 Q 17.495,24.741 17.2,24.606 A 2.149,2.149 0 0 0 16.3,24.4 q -0.9,0 -1.6,0.55 A 4.967,4.967 0 0 0 14.408,25.198 4.167,4.167 0 0 0 13.6,26.2 q -0.4,0.9 -0.85,1.9 -0.45,1 -0.85,1.9 a 47.32,47.32 0 0 1 -0.54,1.161 q -0.63,1.31 -1.417,2.757 A 88.109,88.109 0 0 1 8.45,36.55 Q 6.3,40.2 4.05,43.55 1.8,46.9 0.3,49 0,49.4 0,49.9 0,50.926 0.934,51.142 A 2.518,2.518 0 0 0 1.5,51.2 1.538,1.538 0 0 0 2.506,50.822 2.472,2.472 0 0 0 2.9,50.4 Q 6.6,45.7 9,41.45 a 233.763,233.763 0 0 1 0.178,-0.314 q 1.681,-2.966 2.803,-4.739 A 37.256,37.256 0 0 1 12.7,35.3 a 4.97,4.97 0 0 0 0.66,0.835 q 0.544,0.558 1.308,1.025 a 10.273,10.273 0 0 0 1.482,0.74 q 2.227,0.909 3.917,0.909 A 5.997,5.997 0 0 0 20.4,38.8 22.867,22.867 0 0 0 20.332,38.892 Q 19.433,40.103 17.7,42.75 15.9,45.5 14.3,48.7 a 12.254,12.254 0 0 0 -0.031,0.058 Q 13.582,50.05 12.8,52.25 A 15,15 0 0 0 12.378,53.642 12.19,12.19 0 0 0 12,56.6 a 8.608,8.608 0 0 0 0.048,0.926 q 0.205,1.899 1.302,2.874 a 4.669,4.669 0 0 0 1.361,0.851 z M 228.4,39.6 l 3.8,-7.5 a 11.094,11.094 0 0 0 -1.227,-1.426 9.737,9.737 0 0 0 -0.523,-0.474 3.249,3.249 0 0 0 -1.295,-0.652 q -0.479,-0.125 -1.043,-0.144 A 6.145,6.145 0 0 0 227.9,29.4 a 10.649,10.649 0 0 0 -4.905,1.221 13.306,13.306 0 0 0 -1.095,0.629 22.199,22.199 0 0 0 -4.017,3.31 26.502,26.502 0 0 0 -1.333,1.49 q -2.45,2.95 -4.25,6.4 a 43.232,43.232 0 0 0 -1.897,4.13 35.321,35.321 0 0 0 -0.903,2.57 27.181,27.181 0 0 0 -0.609,2.318 q -0.244,1.145 -0.336,2.16 a 13.059,13.059 0 0 0 -0.055,1.172 6.368,6.368 0 0 0 0.099,1.086 q 0.112,0.647 0.351,1.364 a 1.889,1.889 0 0 0 0.565,0.868 q 0.347,0.294 0.859,0.408 a 3.326,3.326 0 0 0 0.726,0.074 3.693,3.693 0 0 0 1.149,-0.2 q 0.979,-0.321 2.142,-1.158 a 13.87,13.87 0 0 0 0.259,-0.192 25.352,25.352 0 0 0 2.042,-1.732 q 1,-0.937 2.022,-2.066 A 41.73,41.73 0 0 0 218.85,53.1 q 2.15,-2.4 4.1,-5.1 1.919,-2.657 3.354,-4.878 a 82.42,82.42 0 0 0 0.046,-0.072 q 1.11,-1.723 1.722,-2.83 A 17.147,17.147 0 0 0 228.4,39.6 Z M 86.6,45.4 q 3.8,0 7.15,-2.05 3.35,-2.05 5.5,-5.15 2.15,-3.1 2.15,-6.3 A 3.6,3.6 0 0 0 101.318,31.109 2.495,2.495 0 0 0 100.85,30.1 1.666,1.666 0 0 0 100.098,29.57 Q 99.812,29.464 99.454,29.424 A 4.115,4.115 0 0 0 99,29.4 q -2.6,0 -5,1.75 A 19.418,19.418 0 0 0 90.653,34.281 22.973,22.973 0 0 0 89.65,35.55 42.444,42.444 0 0 0 87.349,39.007 35.682,35.682 0 0 0 86.35,40.8 q -0.907,1.747 -1.475,3.133 A 20.133,20.133 0 0 0 84.4,45.2 q 0.5,0.1 1.05,0.15 0.55,0.05 1.15,0.05 z m 73,0 q 3.8,0 7.15,-2.05 3.35,-2.05 5.5,-5.15 2.15,-3.1 2.15,-6.3 a 3.6,3.6 0 0 0 -0.082,-0.791 2.495,2.495 0 0 0 -0.468,-1.009 1.666,1.666 0 0 0 -0.752,-0.53 q -0.286,-0.106 -0.644,-0.146 A 4.115,4.115 0 0 0 172,29.4 q -2.6,0 -5,1.75 a 19.418,19.418 0 0 0 -3.347,3.131 22.973,22.973 0 0 0 -1.003,1.269 42.444,42.444 0 0 0 -2.301,3.457 35.682,35.682 0 0 0 -0.999,1.793 q -0.907,1.747 -1.475,3.133 A 20.133,20.133 0 0 0 157.4,45.2 q 0.5,0.1 1.05,0.15 0.55,0.05 1.15,0.05 z m 26.9,0 q 3.8,0 7.15,-2.05 3.35,-2.05 5.5,-5.15 2.15,-3.1 2.15,-6.3 a 3.6,3.6 0 0 0 -0.082,-0.791 2.495,2.495 0 0 0 -0.468,-1.009 1.666,1.666 0 0 0 -0.752,-0.53 q -0.286,-0.106 -0.644,-0.146 A 4.115,4.115 0 0 0 198.9,29.4 q -2.6,0 -5,1.75 a 19.418,19.418 0 0 0 -3.347,3.131 22.973,22.973 0 0 0 -1.003,1.269 42.444,42.444 0 0 0 -2.301,3.457 35.682,35.682 0 0 0 -0.999,1.793 q -0.907,1.747 -1.475,3.133 A 20.133,20.133 0 0 0 184.3,45.2 q 0.5,0.1 1.05,0.15 0.55,0.05 1.15,0.05 z m 61.8,0 q 3.8,0 7.15,-2.05 3.35,-2.05 5.5,-5.15 2.15,-3.1 2.15,-6.3 a 3.6,3.6 0 0 0 -0.082,-0.791 2.495,2.495 0 0 0 -0.468,-1.009 1.666,1.666 0 0 0 -0.752,-0.53 q -0.286,-0.106 -0.644,-0.146 A 4.115,4.115 0 0 0 260.7,29.4 q -2.6,0 -5,1.75 a 19.418,19.418 0 0 0 -3.347,3.131 22.973,22.973 0 0 0 -1.003,1.269 42.444,42.444 0 0 0 -2.301,3.457 35.682,35.682 0 0 0 -0.999,1.793 q -0.907,1.747 -1.475,3.133 A 20.133,20.133 0 0 0 246.1,45.2 q 0.5,0.1 1.05,0.15 0.55,0.05 1.15,0.05 z M 47.7,19.2 a 4.943,4.943 0 0 0 0.075,0.024 q 0.556,0.176 1.025,0.176 2.4,0 4.45,-1.4 0.965,-0.659 1.476,-1.384 A 2.934,2.934 0 0 0 55.3,14.9 1.381,1.381 0 0 0 55.281,14.662 q -0.05,-0.285 -0.227,-0.474 A 1.003,1.003 0 0 0 54.7,13.95 4.213,4.213 0 0 0 54.585,13.904 Q 54.338,13.809 54.108,13.759 A 2.356,2.356 0 0 0 53.6,13.7 3.056,3.056 0 0 0 53.037,13.759 Q 52.004,13.954 50.35,14.8 a 10.549,10.549 0 0 0 -0.825,0.468 q -0.64,0.404 -1.123,0.855 A 4.932,4.932 0 0 0 47.4,17.4 q -0.3,0.4 -0.3,0.9 a 1.309,1.309 0 0 0 0.027,0.275 q 0.101,0.468 0.573,0.625 z"
       id="path1" />
  </g>
</svg>
